#!OML:ASF H:\Terrain\Patient Classification 1\Walking\liu\liu.ASF
:FULLY-SPECIFIED
:DEGREES
142
root 8.3284 16.6051 -7.51342 11.3224 -4.7145 -4.07299
lowerback -2.45699 2.4338 0.196344
upperback 0.944658 3.1586 3.86257
thorax 2.14051 1.55452 4.00072
lowerneck -20.7099 -5.08983 -13.684
upperneck 14.0027 -5.44432 13.1936
head 8.5208 -2.01119 6.05045
rclavicle 1.31198e-014 2.06736e-014
rhumerus -14.4085 32.5648 -82.9934
rradius 39.2124
rwrist -19.2023
rhand -31.5149 -26.4126
rfingers 7.12502
rthumb -4.78034 -56.3386
lclavicle 1.31198e-014 2.06736e-014
lhumerus -52.33 -2.02141 87.3924
lradius 21.196
lwrist 0.398309
lhand -14.8769 -28.6578
lfingers 7.12502
lthumb 11.2835 1.01875
rfemur -3.32241 4.87853 28.8662
rtibia 21.6287
rfoot -19.731 -2.16841
rtoes -22.3527
lfemur -45.9774 5.52552 -16.7453
ltibia 30.9298
lfoot -15.3127 9.64881
ltoes -12.7671
143
root 8.33343 16.595 -7.26578 11.3167 -4.91697 -4.49957
lowerback -2.52612 2.58924 0.513367
upperback 0.951033 3.35115 3.94984
thorax 2.18609 1.65397 3.92456
lowerneck -20.7637 -5.07125 -13.7115
upperneck 14.0202 -5.41211 13.2304
head 8.53331 -1.99217 6.07369
rclavicle -8.40859e-014 -5.24792e-014
rhumerus -12.8627 34.1837 -82.1788
rradius 40.1628
rwrist -19.5585
rhand -32.7909 -26.4152
rfingers 7.12502
rthumb -6.01237 -56.3099
lclavicle -8.40859e-014 -5.24792e-014
lhumerus -53.5352 -0.845543 85.8092
lradius 20.2043
lwrist -1.42762
lhand -14.1754 -28.6431
lfingers 7.12502
lthumb 11.96 0.99524
rfemur -1.57652 4.81212 29.2542
rtibia 19.8928
rfoot -18.7882 -2.16203
rtoes -23.9603
lfemur -46.2697 4.59471 -15.4714
ltibia 28.4102
lfoot -15.2849 9.79265
ltoes -11.4212
144
root 8.34011 16.5859 -7.0119 11.1793 -5.16407 -4.8517
lowerback -2.72053 2.75369 0.798231
upperback 1.14675 3.54558 4.00598
thorax 2.49874 1.75047 3.84992
lowerneck -20.6386 -5.08535 -13.7831
upperneck 13.8366 -5.43863 13.3718
head 8.46128 -1.99883 6.12797
rclavicle -2.20651e-014 -3.18055e-015
rhumerus -11.0548 35.5279 -81.1532
rradius 41.1278
rwrist -19.9847
rhand -33.7956 -25.3467
rfingers 7.12502
rthumb -6.98225 -55.2116
lclavicle -2.20651e-014 -3.18055e-015
lhumerus -54.551 -0.405208 84.8084
lradius 19.3481
lwrist -2.35898
lhand -14.7392 -28.8603
lfingers 7.12502
lthumb 11.4163 0.808892
rfemur 0.499338 4.63495 29.4972
rtibia 18.0008
rfoot -18.0001 -1.96628
rtoes -25.2916
lfemur -46.4677 3.65434 -14.1693
ltibia 26.2347
lfoot -15.2731 10.0917
ltoes -10.6841
145
root 8.35259 16.5659 -6.74875 11.2549 -5.51458 -5.08238
lowerback -3.15216 2.94862 0.972073
upperback 1.28323 3.77867 4.02213
thorax 2.8789 1.8652 3.81268
lowerneck -20.6685 -5.22731 -13.8324
upperneck 13.816 -5.61301 13.364
head 8.48692 -2.08343 6.10767
rclavicle 2.60408e-014 1.19271e-014
rhumerus -9.21345 36.9079 -80.008
rradius 41.9655
rwrist -20.6127
rhand -33.5695 -23.5822
rfingers 7.12502
rthumb -6.76397 -53.4542
lclavicle 2.60408e-014 1.19271e-014
lhumerus -55.6104 0.49857 83.179
lradius 18.634
lwrist -4.13846
lhand -15.1596 -29.0135
lfingers 7.12502
lthumb 11.0109 0.677761
rfemur 2.45508 4.34992 29.4434
rtibia 16.0043
rfoot -17.2358 -1.29365
rtoes -24.7196
lfemur -46.7717 2.82404 -13.0017
ltibia 24.372
lfoot -15.9791 10.4109
ltoes -11.2226
146
root 8.3627 16.5444 -6.48186 11.3599 -5.87005 -5.34764
lowerback -3.44416 3.14552 1.13286
upperback 1.27189 4.02387 4.04071
thorax 3.02738 1.98898 3.77387
lowerneck -20.6402 -5.33414 -13.7451
upperneck 13.8694 -5.75203 13.1463
head 8.50978 -2.16621 5.99519
rclavicle -1.64991e-014 -5.56597e-015
rhumerus -7.64249 38.0759 -78.9823
rradius 42.6585
rwrist -20.7638
rhand -34.006 -22.4749
rfingers 7.12502
rthumb -7.18536 -52.333
lclavicle -1.64991e-014 -5.56597e-015
lhumerus -56.9106 1.78677 80.9392
lradius 18.1041
lwrist -6.17934
lhand -14.4365 -29.0772
lfingers 7.12502
lthumb 11.7082 0.575632
rfemur 4.2222 4.10527 29.395
rtibia 14.2505
rfoot -16.433 -0.619402
rtoes -25.0584
lfemur -46.9459 2.0446 -11.8048
ltibia 22.6623
lfoot -16.8814 11.1555
ltoes -13.5012
147
root 8.37405 16.5154 -6.22062 11.3407 -6.02754 -5.65946
lowerback -3.76119 3.31143 1.43173
upperback 1.43901 4.21064 4.06427
thorax 3.38875 2.08362 3.67289
lowerneck -20.5512 -5.37309 -13.7033
upperneck 13.5743 -5.79788 13.1147
head 8.39988 -2.19127 5.96243
rclavicle -3.1408e-014 -2.78299e-014
rhumerus -5.90993 38.7017 -77.7139
rradius 43.5031
rwrist -20.3472
rhand -34.3745 -21.9176
rfingers 7.12502
rthumb -7.54107 -51.7632
lclavicle -3.1408e-014 -2.78299e-014
lhumerus -57.95 2.98186 78.7332
lradius 17.6967
lwrist -7.6688
lhand -13.7765 -29.3893
lfingers 7.12502
lthumb 12.3446 0.226234
rfemur 5.90953 4.1114 29.522
rtibia 12.8617
rfoot -15.6172 -0.336822
rtoes -25.3017
lfemur -47.0021 0.949803 -10.3819
ltibia 21.0416
lfoot -16.5372 12.1737
ltoes -16.0944
148
root 8.3916 16.4772 -5.96591 11.399 -6.12238 -5.89047
lowerback -4.3356 3.41063 1.6008
upperback 1.76397 4.29296 4.16384
thorax 4.05157 2.11986 3.74655
lowerneck -20.9531 -5.42161 -13.7203
upperneck 13.5769 -5.79031 13.0315
head 8.46611 -2.18313 5.93612
rclavicle -1.37161e-014 -5.56597e-015
rhumerus -3.93293 39.4426 -75.9803
rradius 44.6544
rwrist -20.3374
rhand -33.455 -22.162
rfingers 7.12502
rthumb -6.65348 -52.0375
lclavicle -1.37161e-014 -5.56597e-015
lhumerus -58.5827 4.17385 76.7344
lradius 16.9329
lwrist -9.50979
lhand -14.3253 -29.8953
lfingers 7.12502
lthumb 11.8155 -0.248584
rfemur 7.60888 4.05993 29.5526
rtibia 11.2439
rfoot -14.6519 -0.0647658
rtoes -25.7541
lfemur -47.3098 -0.303298 -8.96405
ltibia 19.9206
lfoot -16.3077 13.398
ltoes -16.1894
149
root 8.40488 16.4401 -5.70713 11.5407 -6.35711 -5.54662
lowerback -4.64825 3.4927 1.15152
upperback 1.7639 4.42621 3.99343
thorax 4.20022 2.17527 3.85264
lowerneck -21.2362 -5.49793 -13.6787
upperneck 13.8707 -5.90156 13.0557
head 8.62988 -2.22159 5.92871
rclavicle -7.55382e-015 -1.59028e-015
rhumerus -2.70935 39.8302 -75.0241
rradius 45.7775
rwrist -20.3528
rhand -32.9611 -22.4586
rfingers 7.12502
rthumb -6.17661 -52.3486
lclavicle -7.55382e-015 -1.59028e-015
lhumerus -59.5303 5.0232 74.52
lradius 16.0872
lwrist -11.5471
lhand -15.6224 -30.7873
lfingers 7.12502
lthumb 10.5644 -1.07279
rfemur 9.18069 4.22183 28.9128
rtibia 9.65676
rfoot -13.8635 0.0767866
rtoes -26.9144
lfemur -47.673 -1.106 -8.61831
ltibia 19.1525
lfoot -16.5012 14.5624
ltoes -14.9859
150
root 8.41458 16.3879 -5.44457 11.4228 -6.69622 -6.12489
lowerback -4.05839 3.73206 1.60105
upperback 1.398 4.75425 4.02896
thorax 3.50304 2.3576 3.59735
lowerneck -20.6651 -5.55958 -13.77
upperneck 13.8123 -6.08805 13.3447
head 8.55389 -2.30546 6.02021
rclavicle 1.55052e-014 -2.38542e-015
rhumerus -2.2294 40.0958 -74.8668
rradius 46.3685
rwrist -20.2679
rhand -32.8879 -22.4505
rfingers 7.12502
rthumb -6.10595 -52.3425
lclavicle 1.55052e-014 -2.38542e-015
lhumerus -61.2034 5.35955 72.2804
lradius 15.668
lwrist -13.2407
lhand -16.6384 -31.7677
lfingers 7.12502
lthumb 9.5842 -2.00567
rfemur 11.0857 4.59109 29.3224
rtibia 8.14447
rfoot -12.8587 0.327172
rtoes -27.0822
lfemur -47.7171 -0.805531 -7.92274
ltibia 18.7819
lfoot -16.2349 14.688
ltoes -13.2442
151
root 8.42578 16.342 -5.17458 11.4653 -7.01844 -6.35805
lowerback -4.27495 4.01436 1.69382
upperback 1.36921 5.11745 4.05617
thorax 3.58366 2.53962 3.61493
lowerneck -20.0184 -5.67303 -14.0569
upperneck 13.2347 -6.25333 13.6457
head 8.2955 -2.39291 6.13956
rclavicle -1.45113e-014 -1.98785e-014
rhumerus -0.617969 40.6359 -73.7391
rradius 46.4004
rwrist -20.8645
rhand -32.8797 -22.1642
rfingers 7.12502
rthumb -6.09809 -52.0564
lclavicle -1.45113e-014 -1.98785e-014
lhumerus -62.2028 5.67635 70.3197
lradius 15.2062
lwrist -14.749
lhand -16.9103 -32.1985
lfingers 7.12502
lthumb 9.32192 -2.42463
rfemur 12.9617 4.93086 29.2778
rtibia 6.36529
rfoot -11.6384 0.596223
rtoes -27.2185
lfemur -48.0704 0.0565356 -8.24204
ltibia 18.9369
lfoot -15.728 13.8793
ltoes -13.3442
152
root 8.44543 16.2823 -4.90383 11.4589 -7.36903 -6.75613
lowerback -4.52278 4.30261 2.06863
upperback 1.49239 5.46101 4.1124
thorax 3.8653 2.71534 3.52059
lowerneck -19.9046 -5.78775 -14.117
upperneck 13.0496 -6.38169 13.5879
head 8.23328 -2.46616 6.10591
rclavicle -4.25399e-014 -2.54444e-014
rhumerus 0.989443 40.9823 -72.4793
rradius 46.6479
rwrist -21.3881
rhand -33.2328 -21.2986
rfingers 7.12502
rthumb -6.43898 -51.1808
lclavicle -4.25399e-014 -2.54444e-014
lhumerus -62.9838 6.39871 67.9483
lradius 14.6259
lwrist -16.6596
lhand -16.7515 -32.3848
lfingers 7.12502
lthumb 9.47517 -2.61782
rfemur 15.6759 5.31589 29.4668
rtibia 3.06496
rfoot -9.54544 0.614801
rtoes -27.3291
lfemur -48.6019 1.4495 -8.84185
ltibia 19.7686
lfoot -15.3542 12.505
ltoes -14.4667
153
root 8.46629 16.2107 -4.62865 11.464 -7.37135 -6.58416
lowerback -4.64733 4.37633 1.91462
upperback 1.42874 5.571 3.98786
thorax 3.86201 2.76811 3.49203
lowerneck -20.1881 -5.9951 -14.129
upperneck 13.391 -6.64123 13.5003
head 8.43196 -2.58723 6.04538
rclavicle -8.96519e-014 -1.35174e-014
rhumerus 1.96043 40.9876 -71.7976
rradius 47.0901
rwrist -21.3947
rhand -33.5302 -20.1866
rfingers 7.12502
rthumb -6.72606 -50.0597
lclavicle -8.96519e-014 -1.35174e-014
lhumerus -64.0476 7.33457 65.0494
lradius 14.2491
lwrist -19.2031
lhand -15.735 -31.7162
lfingers 7.12502
lthumb 10.4558 -1.99625
rfemur 18.2038 5.28794 29.0918
rtibia 4.45278e-014
rfoot -7.43817 0.594807
rtoes -26.1765
lfemur -49.2768 2.74749 -10.3559
ltibia 20.7172
lfoot -15.2923 10.4798
ltoes -14.6515
154
root 8.47568 16.1468 -4.34772 11.2777 -7.68084 -6.99808
lowerback -4.48968 4.54596 2.09129
upperback 1.4327 5.79095 4.0621
thorax 3.77819 2.88161 3.47365
lowerneck -20.3283 -6.08566 -13.961
upperneck 13.5166 -6.77835 13.3471
head 8.50623 -2.65224 5.9437
rclavicle 6.5102e-014 -9.54166e-015
rhumerus 2.89544 41.0869 -71.2652
rradius 47.3018
rwrist -21.4517
rhand -33.6864 -19.8837
rfingers 7.12502
rthumb -6.87684 -49.752
lclavicle 6.5102e-014 -9.54166e-015
lhumerus -65.0403 8.08842 62.2745
lradius 13.9738
lwrist -21.1825
lhand -13.7685 -30.1383
lfingers 7.12502
lthumb 12.3523 -0.523248
rfemur 19.4456 5.59163 29.3808
rtibia -4.13472e-014
rfoot -6.64192 0.74945
rtoes -26.1386
lfemur -49.5076 3.86104 -10.7028
ltibia 21.9823
lfoot -15.244 8.97852
ltoes -15.4964
